<svg width="16" height="16" viewBox="0 0 16 16" fill="none" xmlns="http://www.w3.org/2000/svg">
<rect width="16" height="16" fill="#22222B"/>
<g clip-path="url(#clip0_3920_62)">
<path d="M4.44798 7.31101C4.27081 7.15847 4.01873 7.0811 3.69872 7.0811H2.75C2.76218 7.52565 2.76218 7.80684 2.76218 8.01306C2.76218 8.2193 2.76218 8.47513 2.75003 8.91887H3.69872C4.33157 8.91887 4.72471 8.56679 4.72471 8C4.72471 7.70094 4.6316 7.46914 4.44798 7.31101ZM3.69872 8.64114H3.16575V7.35624H3.69872C4.10326 7.35624 4.30836 7.57282 4.30836 8C4.30836 8.41942 4.09754 8.64114 3.69872 8.64114Z" fill="white"/>
<path d="M10.0908 7.05501C9.46749 7.05501 9.06475 7.42595 9.06475 7.99999C9.06475 8.60054 9.43873 8.945 10.0908 8.945C10.714 8.945 11.1168 8.57407 11.1168 7.99999C11.1168 7.39944 10.7428 7.05501 10.0908 7.05501ZM10.0908 8.66727C9.68624 8.66727 9.4811 8.44277 9.4811 7.99999C9.4811 7.58052 9.70903 7.33009 10.0908 7.33009C10.4953 7.33009 10.7004 7.55548 10.7004 7.99999C10.7004 8.42407 10.4782 8.66727 10.0908 8.66727Z" fill="white"/>
<path d="M12.3702 7.8546C12.0538 7.83731 11.7805 7.82242 11.7805 7.61326C11.7805 7.47218 11.8716 7.30397 12.3057 7.30397C12.6524 7.30397 12.8208 7.412 12.8208 7.63417C12.8208 7.65565 12.8195 7.67562 12.8177 7.69596H13.1839C13.189 7.65378 13.1915 7.61132 13.1912 7.56883C13.1912 7.22788 12.889 7.05501 12.293 7.05501C11.8692 7.05501 11.3641 7.1532 11.3641 7.62108C11.3641 8.07337 11.83 8.10271 12.2411 8.12864C12.5591 8.14867 12.8336 8.16598 12.8336 8.3789C12.8336 8.59643 12.6551 8.69341 12.2547 8.69341C11.8582 8.69341 11.6654 8.58113 11.6654 8.35016C11.6654 8.33791 11.6654 8.32372 11.6661 8.3093H11.3024C11.3006 8.32984 11.2998 8.35045 11.3002 8.37107C11.3002 8.77334 11.5956 8.94501 12.2879 8.94501C12.9353 8.94501 13.25 8.75131 13.25 8.35279C13.25 7.9026 12.7826 7.87707 12.3702 7.8546Z" fill="white"/>
<path d="M7.93452 7.85275H7.74575C7.57796 7.85275 7.38133 7.82912 7.38133 7.50619V7.34605H7.93452C8.18095 7.34605 8.354 7.38806 8.354 7.59545C8.354 7.77137 8.22554 7.85275 7.93452 7.85275ZM8.88098 8.39883C8.87312 8.17306 8.72627 7.99188 8.4982 7.97877L8.45098 7.97614V7.94728L8.49556 7.94202C8.66076 7.91576 8.7761 7.75822 8.7761 7.55608C8.7761 7.23578 8.56896 7.07564 8.14949 7.07564H6.9697V7.45632C6.9697 8.03652 7.28694 8.13368 7.71426 8.13368H7.99221C8.25699 8.13368 8.42214 8.19143 8.43528 8.39356C8.42479 8.56948 8.25699 8.64298 7.9817 8.64298H7.37345V8.31218H7.02213L6.91726 8.91338H7.93289C8.40219 8.91338 8.88098 8.84251 8.88098 8.39883Z" fill="white"/>
<path d="M6.61816 8.91887L6.66269 8.64321H5.42152V8.12862H6.41654L6.45322 7.85035H5.42152V7.35677H6.61816V7.08111H5.00783C5.02091 7.52742 5.02091 7.80835 5.02091 8.01575C5.02091 8.22052 5.02091 8.47782 5.00783 8.91887H6.61816Z" fill="white"/>
</g>
<defs>
<clipPath id="clip0_3920_62">
<rect width="10.6667" height="2" fill="white" transform="translate(2.66669 7)"/>
</clipPath>
</defs>
</svg>
