<svg width="80" height="80" viewBox="0 0 80 80" fill="none" xmlns="http://www.w3.org/2000/svg">
<path d="M40.0052 0.414062C29.5071 0.414063 19.4389 4.58444 12.0156 12.0078C4.59225 19.4311 0.421875 29.4992 0.421875 39.9974C0.421875 50.4955 4.59225 60.5637 12.0156 67.987C19.4389 75.4103 29.5071 79.5807 40.0052 79.5807C50.5034 79.5807 60.5715 75.4103 67.9948 67.987C75.4182 60.5637 79.5885 50.4955 79.5885 39.9974C79.5885 29.4992 75.4182 19.4311 67.9948 12.0078C60.5715 4.58444 50.5034 0.414063 40.0052 0.414062Z" fill="#039BE5"/>
<path d="M45.3636 50.4891H55.6073L57.2156 40.0828H45.3615V34.3953C45.3615 30.0724 46.774 26.2391 50.8177 26.2391H57.3156V17.1578C56.174 17.0037 53.7594 16.6662 49.1969 16.6662C39.6698 16.6662 34.0844 21.6974 34.0844 33.1599V40.0828H24.2906V50.4891H34.0844V79.0912C36.024 79.3828 37.9886 79.5808 40.0052 79.5808C41.8281 79.5808 43.6073 79.4141 45.3636 79.1766V50.4891Z" fill="white"/>
</svg>
