<svg width="512" height="512" viewBox="0 0 512 512" fill="none" xmlns="http://www.w3.org/2000/svg">
<g clip-path="url(#clip0_609_7)">
<path fill-rule="evenodd" clip-rule="evenodd" d="M256 0C397.385 0 512 114.615 512 256C512 397.385 397.385 512 256 512C114.615 512 0 397.385 0 256C0 114.615 114.615 0 256 0Z" fill="black"/>
<path d="M339.966 124H384.739L286.922 235.829L402 388H311.892L241.321 295.707L160.569 388H115.767L220.392 268.387L110 124H202.39L266.182 208.357L339.966 124ZM324.251 361.193H349.063L188.91 149.4H162.289L324.251 361.193Z" fill="white"/>
</g>
<defs>
<clipPath id="clip0_609_7">
<rect width="512" height="512" fill="white"/>
</clipPath>
</defs>
</svg>
